<svg xmlns="http://www.w3.org/2000/svg" data-name="Layer 1" viewBox="0 0 800.122 541.445"><path fill="#f2f2f2" d="M731.892 189.445c-.84.69-1.68 1.35-2.54 2h-212.14q-2.37-.975-4.72-2a249.8 249.8 0 0 1-61.87-38.52c-12.37-10.48-23.75-21.3-32-31.44-11.51-14.15-22.11-29.57-27.04-47.14-4.92-17.57-3.45-37.71 7.54-52.28a46.8 46.8 0 0 1 12.35-11.31c.79-.5 1.59-.98 2.41-1.43 13.18-7.4 29.81-9.2 44.65-5.37 21.25 5.49 38.91 20.82 51.51 38.8 12.6 17.97 20.78 38.61 28.84 59.02 8.18-36.43 32.95-69.06 66.41-85.65 33.45-16.59 75.01-16.39 107.75 1.58a108.3 108.3 0 0 1 27.55 21.7c.79.85 1.56 1.72 2.32 2.6 15.97 18.49 25.96 42.17 26.78 66.59 1.05 31.46-13.53 63.06-37.8 82.85"/><path fill="#fff" d="M525.692 191.445h-3c-.04-.67-.09-1.33-.15-2a224 224 0 0 0-6.56-38.74 238.8 238.8 0 0 0-38.31-80.46 228.6 228.6 0 0 0-65.5-60.46 1.42 1.42 0 0 1-.7-1.03 1.496 1.496 0 0 1 2.21-1.56 2 2 0 0 1 .2.13 226.5 226.5 0 0 1 40.12 31.12 240.9 240.9 0 0 1 51.71 74.13 233.6 233.6 0 0 1 19.82 76.87c.06.67.11 1.34.16 2m217.22-151.44a.2.2 0 0 1-.07.02c-2.19.4-4.39.82-6.57 1.27a297 297 0 0 0-52.33 15.89 309 309 0 0 0-48.5 25 314 314 0 0 0-43.45 33.08 307.5 307.5 0 0 0-36.99 40.12 297.5 297.5 0 0 0-22.61 34.06c-.38.66-.75 1.33-1.12 2h-3.43c.36-.67.73-1.34 1.11-2a300 300 0 0 1 27.98-41.33 311 311 0 0 1 38.31-39.75 318 318 0 0 1 44.38-32.28 312 312 0 0 1 49.52-24.16 297 297 0 0 1 51.45-14.52l1.46-.27c1.87-.34 2.67 2.48.86 2.87"/><path fill="#3f3d56" d="M783.122 189.445h-482a17.024 17.024 0 0 0-17 17v186a17.024 17.024 0 0 0 17 17h482a17.024 17.024 0 0 0 17-17v-186a17.024 17.024 0 0 0-17-17m15 203a15.02 15.02 0 0 1-15 15h-482a15.02 15.02 0 0 1-15-15v-186a15.02 15.02 0 0 1 15-15h482a15.02 15.02 0 0 1 15 15Z"/><path fill="#3f3d56" d="M388.636 357.445a58 58 0 1 1 58-58 58.066 58.066 0 0 1-58 58m0-114a56 56 0 1 0 56 56 56.064 56.064 0 0 0-56-56"/><path id="themeColor" fill="#6c63ff" d="M740.108 262.445h-231a12.497 12.497 0 0 0-12.48 12.01 4 4 0 0 0-.02.49 12.52 12.52 0 0 0 12.5 12.5h231a12.5 12.5 0 0 0 0-25m0 49h-231a12.497 12.497 0 0 0-12.48 12.01 4 4 0 0 0-.02.49 12.52 12.52 0 0 0 12.5 12.5h231a12.5 12.5 0 0 0 0-25m-357.943 13.342a7.46 7.46 0 0 1-4.489-1.491l-.08-.06-16.904-12.943a7.51 7.51 0 1 1 9.135-11.922l10.95 8.395 25.874-33.744a7.51 7.51 0 0 1 10.53-1.39l-.161.219.165-.216a7.52 7.52 0 0 1 1.39 10.53l-30.435 39.691a7.51 7.51 0 0 1-5.975 2.931"/><path fill="#fff" d="M683.258 144.395a198.2 198.2 0 0 0-62.845 1.417A202.3 202.3 0 0 0 561.24 166.5a195 195 0 0 0-29.53 19.51c-1.507 1.204.628 3.315 2.122 2.12a193.8 193.8 0 0 1 53.787-30.235 199.7 199.7 0 0 1 60.064-12.185 191 191 0 0 1 34.777 1.578 1.554 1.554 0 0 0 1.845-1.048 1.51 1.51 0 0 0-1.047-1.845"/><path fill="#f1f1f1" d="M747.902 525.36c7.183 12.697 1.092 55.585 1.092 55.585s-39.89-16.886-47.073-29.579a26.413 26.413 0 0 1 45.98-26.007"/><path fill="#fff" d="m749.572 580.89-.847.178c-8.162-38.778-36.666-65.075-36.953-65.336l.583-.64c.289.262 28.996 26.738 37.217 65.798"/><path fill="#f1f1f1" d="M813.173 539.818c-9.748 17.683-64.706 41.638-64.706 41.638s-9.061-59.263.681-76.94a36.556 36.556 0 1 1 64.025 35.302"/><path fill="#fff" d="m748.952 582.098-.826-.87c39.77-37.768 50.065-90.444 50.164-90.972l1.178.222c-.1.531-10.458 53.577-50.516 91.62"/><path fill="#3f3d56" d="M192.566 405.92a75.2 75.2 0 0 1-18.64-2.412l-1.2-.332-1.113-.558c-40.242-20.176-74.192-46.827-100.907-79.211a299.9 299.9 0 0 1-50.95-90.47A348.2 348.2 0 0 1 .067 110.272c.017-.876.031-1.552.031-2.018 0-20.29 11.262-38.092 28.692-45.354C42.128 57.342 163.244 7.595 171.995 4c16.48-8.257 34.062-1.365 36.875-.16 6.311 2.58 118.276 48.375 142.471 59.897 24.936 11.874 31.589 33.205 31.589 43.937 0 48.589-8.415 93.998-25.011 134.968a312.5 312.5 0 0 1-56.163 90.51c-45.846 51.595-91.705 69.885-92.148 70.046a50.1 50.1 0 0 1-17.042 2.721m-10.785-26.715c3.976.892 13.13 2.229 19.096.052 7.58-2.764 45.962-22.668 81.83-63.032 49.557-55.769 74.703-125.875 74.74-208.371-.09-1.672-1.276-13.592-17.062-21.109C316.659 75.447 200.28 27.86 199.108 27.381l-.321-.137c-2.439-1.022-10.2-3.174-15.55-.37l-1.072.499c-1.297.532-129.863 53.337-143.575 59.05-9.592 3.997-13.01 13.898-13.01 21.83 0 .58-.014 1.424-.035 2.514-1.096 56.447 11.966 195.346 156.236 268.438"/><path id="themeColor" fill="#6c63ff" d="M177.324 15.586S47.589 68.87 33.689 74.662s-20.85 19.691-20.85 33.592S2.414 303.532 177.324 391.228c0 0 15.875 4.392 27.919 0S370.188 312.7 370.188 107.674c0 0 0-20.85-24.325-32.433S203.929 15.586 203.929 15.586s-14.443-6.37-26.605 0"/><path d="M181.224 57.286v284.25S50.331 278.53 51.49 112.888Z" opacity=".1"/><path fill="#cacaca" d="M818.07 584h-381a1 1 0 0 1 0-2h381a1 1 0 0 1 0 2"/><path fill="#fff" d="M241.196 187.697v-26.135a37.842 37.842 0 1 0-75.685 0v26.135a19.676 19.676 0 0 0-18.79 19.646v61.759h113.266v-61.759a19.676 19.676 0 0 0-18.79-19.646m-47.842-50.653a24.546 24.546 0 0 1 24.517 24.518v26.09h-49.034v-26.09a24.546 24.546 0 0 1 24.517-24.518"/><path id="themeColor" fill="#6c63ff" d="M213.535 218.195a10.181 10.181 0 1 0-15.909 8.414v22.13h11.454v-22.13a10.17 10.17 0 0 0 4.455-8.414"/></svg>
