<svg xmlns="http://www.w3.org/2000/svg" viewBox="0 0 524.67 418.271"><path fill="#e0e0e0" d="M205.782 159.982c-1.103 0-2 .897-2 2v64c0 1.103.897 2 2 2s2-.897 2-2v-64c0-1.103-.897-2-2-2m-181-48c-1.103 0-2 .897-2 2v16c0 1.103.897 2 2 2s2-.897 2-2v-16c0-1.103-.897-2-2-2m0 48c-1.103 0-2 .897-2 2v31c0 1.103.897 2 2 2s2-.897 2-2v-31c0-1.103-.897-2-2-2m0 44c-1.103 0-2 .897-2 2v31c0 1.103.897 2 2 2s2-.897 2-2v-31c0-1.103-.897-2-2-2m179.373-155c-1.103 0-2 .897-2 2v31c0 1.103.897 2 2 2s2-.897 2-2v-31c0-1.103-.897-2-2-2"/><path id="themeColor" fill="#6c63ff" d="M142.376 268.84h-69.22v-2h69.22c6.013 0 10.905-4.893 10.905-10.907V209.13h2v46.803c0 7.116-5.789 12.906-12.905 12.906m-5.357 76.455h157.436v2H137.019z"/><path fill="#e6e6e6" d="M374.343 205.466h-84.092c-4.538 0-8.23-3.692-8.23-8.23V114.17c0-4.538 3.692-8.23 8.23-8.23h84.092c4.538 0 8.23 3.692 8.23 8.23v83.066c0 4.538-3.692 8.23-8.23 8.23"/><path fill="#fff" d="M305.912 108.392c-11.84 0-21.439 9.598-21.439 21.439v65.643a7.54 7.54 0 0 0 7.54 7.54h51.42c20.262 0 36.688-16.426 36.688-36.688v-50.394a7.54 7.54 0 0 0-7.54-7.54z"/><path fill="#e6e6e6" d="M354.82 132.532h-45.221c-.863 0-1.565-.702-1.565-1.565s.702-1.564 1.565-1.564h45.22c.863 0 1.565.701 1.565 1.564s-.702 1.565-1.565 1.565m.001 33.363h-45.221c-.863 0-1.565-.702-1.565-1.565s.702-1.564 1.565-1.564h45.22a1.566 1.566 0 0 1 0 3.13m18.363-16.672h-81.947c-.862 0-1.564-.702-1.564-1.564s.702-1.565 1.564-1.565h81.947a1.566 1.566 0 0 1 0 3.13M374.02 179.46h-29.604c-.863 0-1.565-.701-1.565-1.564s.702-1.564 1.565-1.564h29.603c.863 0 1.565.701 1.565 1.564s-.702 1.565-1.565 1.565M117.711 410.97H50.937a6.54 6.54 0 0 1-6.535-6.535v-65.96a6.54 6.54 0 0 1 6.535-6.535h66.774a6.54 6.54 0 0 1 6.535 6.535v65.96a6.54 6.54 0 0 1-6.535 6.535"/><path fill="#fff" d="M63.372 333.887c-9.402 0-17.023 7.622-17.023 17.024v52.125a5.987 5.987 0 0 0 5.987 5.987h40.831c16.09 0 29.132-13.043 29.132-29.132v-40.016a5.987 5.987 0 0 0-5.987-5.988z"/><path fill="#e6e6e6" d="M92.208 350.055H56.3c-.685 0-1.243-.557-1.243-1.242s.558-1.242 1.243-1.242h35.908a1.244 1.244 0 0 1 0 2.484m20 29.493H76.3c-.685 0-1.243-.557-1.243-1.242s.558-1.242 1.243-1.242h35.908a1.244 1.244 0 0 1 0 2.484m4.582-13.238H51.718a1.243 1.243 0 0 1 0-2.484h65.072a1.244 1.244 0 0 1 0 2.485M117.454 390.32H93.947c-.685 0-1.243-.557-1.243-1.242s.558-1.242 1.243-1.242h23.507a1.244 1.244 0 0 1 0 2.484m33.586-181.694h-49.383a4.84 4.84 0 0 1-4.833-4.833v-48.78a4.84 4.84 0 0 1 4.833-4.834h49.383a4.84 4.84 0 0 1 4.833 4.833v48.78a4.84 4.84 0 0 1-4.833 4.834"/><path fill="#fff" d="M110.854 151.62c-6.953 0-12.59 5.636-12.59 12.589v38.549a4.43 4.43 0 0 0 4.428 4.428h30.196c11.9 0 21.545-9.646 21.545-21.545v-29.594a4.43 4.43 0 0 0-4.428-4.428z"/><path fill="#e6e6e6" d="M139.575 165.795h-26.556a.92.92 0 0 1 0-1.837h26.556a.92.92 0 0 1 0 1.837m0 19.593h-26.556a.92.92 0 0 1 0-1.838h26.556a.92.92 0 0 1 0 1.838m10.783-9.79h-48.123a.92.92 0 0 1 0-1.838h48.123a.92.92 0 0 1 0 1.838M150.85 193.354h-17.385a.92.92 0 0 1 0-1.837h17.385a.92.92 0 0 1 0 1.837"/><circle id="themeColor" cx="279.155" cy="190.13" r="10" fill="#6c63ff"/><circle id="themeColor" cx="154.155" cy="209.13" r="10" fill="#6c63ff"/><circle id="themeColor" cx="130.155" cy="346.13" r="10" fill="#6c63ff"/><g fill="#f2f2f2"><ellipse cx="223.756" cy="66.652" rx="12.463" ry="12.201"/><path d="M323.67 62.478h-67.086c-2.301 0-4.174-1.872-4.174-4.174s1.873-4.174 4.174-4.174h67.085c2.302 0 4.174 1.873 4.174 4.174s-1.872 4.174-4.174 4.174m52.354 14.127H256.584c-2.301 0-4.174-1.872-4.174-4.174s1.873-4.174 4.174-4.174h119.439c2.3 0 4.173 1.873 4.173 4.174s-1.872 4.174-4.173 4.174"/></g><g fill="#f2f2f2"><ellipse cx="43.359" cy="122.234" rx="8.066" ry="7.896"/><path d="M108.021 119.533H64.605c-1.49 0-2.701-1.212-2.701-2.701s1.211-2.702 2.7-2.702h43.417c1.49 0 2.702 1.212 2.702 2.702s-1.212 2.701-2.702 2.701m33.883 9.143h-77.3c-1.489 0-2.7-1.212-2.7-2.701s1.211-2.702 2.7-2.702h77.3a2.702 2.702 0 0 1 0 5.402"/></g><g fill="#f2f2f2"><ellipse cx="175.359" cy="383.234" rx="8.066" ry="7.896"/><path d="M240.021 381.533h-43.416c-1.49 0-2.701-1.212-2.701-2.701s1.211-2.702 2.7-2.702h43.417c1.49 0 2.702 1.212 2.702 2.702s-1.212 2.701-2.702 2.701m33.883 9.143h-77.3c-1.489 0-2.7-1.212-2.7-2.701s1.211-2.702 2.7-2.702h77.3a2.702 2.702 0 0 1 0 5.402"/></g><path fill="#e6e6e6" d="M186.405 155.97h2v95h-2z"/><circle cx="187.405" cy="250.97" r="6" fill="#e6e6e6"/><circle cx="318.405" cy="280.97" r="6" fill="#e6e6e6"/><circle cx="116.405" cy="237.97" r="6" fill="#e6e6e6"/><path fill="#e6e6e6" d="m81.375 238.973 32.813-.993.06 2-32.812.993z"/><circle cx="113.942" cy="303.486" r="6" fill="#e6e6e6"/><path fill="#e6e6e6" d="M162.161 326.455h-49.756v-22.97h2v20.97h47.756zm-86.738-45.8h238.982v2H75.423z"/><path fill="#3f3d56" d="m471.744 411.42-159.457.055c-8.01.003-15.186-.137-19.194-11.073-2.004-3.468-3.006-7.273-3.008-11.079 0-3.805 1-7.611 3-11.08l79.678-145.05c4.004-6.939 11.177-11.083 19.187-11.086s15.187 4.137 19.195 11.073l79.789 145.012c1.998 3.46 2.998 7.26 2.999 11.063s-1 7.609-3.002 11.079c-4.003 6.939-11.176 11.083-19.187 11.086m-179.654-22.1c0 3.464 17.595-4 19.418-.845 3.646 6.31-6.51 21.003.779 21 0 0 173.27-3.828 176.912-10.14 1.82-3.157 2.73-6.62 2.73-10.082s-.914-6.923-2.738-10.078l-79.788-145.012c-3.636-6.293-10.164-10.058-17.452-10.056-7.285.003-99.86 161.75-99.861 165.213"/><circle cx="438.48" cy="311.431" r="73" fill="#faedc4"/><g fill="#eab308"><circle cx="448.493" cy="349.479" r="6.703"/><path d="M448.464 266.681c-.616 4.092.488.948.494 22.586.006 17.637 3.665 41.285-.472 41.287s-5.65-48.803-20.017-53.122c-16.89-5.079 21.988-23.995 19.995-10.75"/></g><path fill="#3f3d56" d="m340.503 348.702-6.595 13.935c7.973-5.717 20.427-10.646 30.337-13.285-9.234-4.46-20.533-11.652-27.283-18.772l3.793 14.724c-44.474-9.058-76.411-43.176-76.425-82.26l-1.606-.552c.014 40.823 31.51 76.961 77.78 86.21"/></svg>
