<?xml version="1.0" encoding="UTF-8"?>
<svg id="Capa_1" data-name="Capa 1" xmlns="http://www.w3.org/2000/svg" viewBox="0 0 512 512">
  <defs>
    <style>
      .cls-1, .cls-2, .cls-3, .cls-4, .cls-5 {
        fill: none;
        stroke: #fff;
        stroke-linecap: round;
        stroke-linejoin: round;
      }

      .cls-1, .cls-2, .cls-4, .cls-5 {
        stroke-width: 24px;
      }

      .cls-1, .cls-6, .cls-4 {
        opacity: .5;
      }

      .cls-1, .cls-4 {
        stroke-dasharray: 0 0 0 0 0 0 2 30 0 0 0 0;
      }

      .cls-1, .cls-5 {
        fill-rule: evenodd;
      }

      .cls-3 {
        stroke-width: 16px;
      }

      .cls-7 {
        fill: #fff;
      }

      .cls-7, .cls-8 {
        stroke-width: 0px;
      }

      .cls-8 {
        fill: #616bb0;
      }
    </style>
  </defs>
  <circle id="themeColor" class="cls-8" cx="256" cy="256" r="234.11"/>
  <path class="cls-7" d="M305.84,76.13c2.76,0,5,2.24,5,5v8.34l11.48-2.3c11.01-2.2,22.42-1.15,32.85,3.02l1.36.54c10.41,4.17,21.88,4.94,32.76,2.22,5.05-1.26,9.95,2.56,9.95,7.77v49.15c0,4.3-2.93,8.04-7.1,9.09l-1.43.36c-11.81,2.95-24.24,2.11-35.54-2.41-10.43-4.17-21.84-5.22-32.85-3.02l-11.48,2.3v19.21c0,2.76-2.24,5-5,5s-5-2.24-5-5v-94.26c0-2.76,2.24-5,5-5Z"/>
  <g>
    <path class="cls-7" d="M193.29,393.94h-36.31c-11.89,0-21.56,9.67-21.56,21.56v9.08c0,1.88,1.52,3.4,3.4,3.4h72.62c1.88,0,3.4-1.52,3.4-3.4v-9.08c0-11.89-9.67-21.56-21.56-21.56Z"/>
    <path class="cls-7" d="M175.14,387.21c11.89,0,21.56-9.67,21.56-21.56s-9.67-21.56-21.56-21.56-21.56,9.67-21.56,21.56,9.67,21.56,21.56,21.56Z"/>
  </g>
  <path class="cls-5" d="M175.14,320.74v-34.1c0-15.24,15.21-27.59,33.97-27.59h91.23c18.76,0,33.97-12.35,33.97-27.59v-15.51"/>
  <polyline class="cls-2" points="369.59 223.49 334.32 188.21 334.32 188.21 299.04 223.49"/>
  <g class="cls-6">
    <g>
      <line class="cls-3" x1="124.05" y1="125.17" x2="162.89" y2="164"/>
      <line class="cls-3" x1="162.89" y1="125.17" x2="124.05" y2="164"/>
    </g>
    <g>
      <line class="cls-3" x1="374.13" y1="312.8" x2="412.96" y2="351.63"/>
      <line class="cls-3" x1="412.96" y1="312.8" x2="374.13" y2="351.63"/>
    </g>
  </g>
  <path class="cls-1" d="M105.67,196.85s-52.39,91.15,35.8,145.81"/>
  <path class="cls-4" d="M238.33,418.33s66.52,26.67,131.26-40"/>
</svg>
