<?xml version="1.0" encoding="UTF-8"?>
<svg id="Capa_1" data-name="Capa 1" xmlns="http://www.w3.org/2000/svg" viewBox="0 0 512 512">
  <defs>
    <style>
      .cls-1 {
        fill: #fff;
        stroke-width: 0px;
      }
    </style>
  </defs>
  <path class="cls-1" d="M256,21.89C126.7,21.89,21.89,126.7,21.89,256s104.82,234.11,234.11,234.11,234.11-104.82,234.11-234.11S385.3,21.89,256,21.89ZM300.84,81.13c0-2.76,2.24-5,5-5s5,2.24,5,5v8.34l11.48-2.3c11.01-2.2,22.42-1.15,32.85,3.02l1.36.54c10.41,4.17,21.88,4.94,32.76,2.22,5.05-1.26,9.95,2.56,9.95,7.77v49.15c0,4.3-2.93,8.04-7.1,9.09l-1.43.36c-11.81,2.95-24.24,2.11-35.54-2.41-10.43-4.17-21.84-5.22-32.85-3.02l-11.48,2.3v19.21c0,2.76-2.24,5-5,5s-5-2.24-5-5v-94.26ZM118.4,130.82c-3.12-3.12-3.12-8.19,0-11.31,3.12-3.12,8.19-3.12,11.31,0l13.76,13.76,13.76-13.76c3.12-3.12,8.19-3.12,11.31,0,3.12,3.12,3.12,8.19,0,11.31l-13.76,13.76,13.76,13.76c3.12,3.12,3.12,8.19,0,11.31-1.56,1.56-3.61,2.34-5.66,2.34s-4.09-.78-5.66-2.34l-13.76-13.76-13.76,13.76c-1.56,1.56-3.61,2.34-5.66,2.34s-4.09-.78-5.66-2.34c-3.12-3.12-3.12-8.19,0-11.31l13.76-13.76-13.76-13.76ZM175.14,344.09c11.89,0,21.56,9.67,21.56,21.56s-9.67,21.56-21.56,21.56-21.56-9.67-21.56-21.56,9.67-21.56,21.56-21.56ZM94.06,193.1c.63-1.21,1.05-1.96,1.21-2.23,2.13-3.71,6.12-6.02,10.41-6.02,2.09,0,4.15.55,5.97,1.6,5.74,3.3,7.72,10.65,4.42,16.38-.02.05-.06.12-.13.23-.08.17-.28.53-.57,1.08-2.07,4-6.15,6.48-10.66,6.48-1.9,0-3.81-.46-5.51-1.34-2.85-1.48-4.95-3.97-5.92-7.02-.97-3.06-.69-6.31.78-9.16ZM82.06,225.82c.17-.71.35-1.42.53-2.11h0c1.36-5.32,6.14-9.02,11.61-9.02,1,0,2.01.12,2.99.37,5.31,1.36,9.02,6.13,9.02,11.61,0,1-.12,2.01-.37,3-.14.54-.29,1.12-.44,1.77-1.31,5.41-6.1,9.19-11.66,9.19-.94,0-1.89-.11-2.82-.33-6.43-1.55-10.41-8.05-8.86-14.48ZM78.28,260.73c-.02-.69-.04-1.42-.05-2.22v-.16c0-3.17,1.23-6.16,3.46-8.42,2.23-2.27,5.21-3.53,8.39-3.57h.15c3.18,0,6.17,1.23,8.43,3.46,2.26,2.23,3.53,5.21,3.57,8.39,0,.57.02,1.16.04,1.77.1,3.2-1.06,6.25-3.25,8.59-2.2,2.34-5.17,3.68-8.37,3.78h-.38c-3.13,0-6.09-1.19-8.34-3.37-2.26-2.18-3.55-5.11-3.65-8.25ZM89.75,301.54c-2.05-1.37-3.6-3.32-4.49-5.62-.3-.79-.56-1.48-.78-2.11t0-.02c-.48-1.33-.72-2.72-.72-4.12.03-5.02,3.21-9.54,7.93-11.24,1.32-.47,2.69-.71,4.08-.71,5.03,0,9.57,3.18,11.28,7.92h0s.03.07.03.07c.21.59.4,1.09.58,1.56,2.39,6.17-.7,13.13-6.87,15.52-1.39.53-2.84.81-4.32.81-2.4,0-4.72-.71-6.71-2.06ZM120.79,327.9c-2.18,1.88-4.97,2.92-7.84,2.92-3.5,0-6.81-1.52-9.09-4.16-.5-.58-.99-1.15-1.44-1.7,0,0,0,0,0,0-1.77-2.14-2.75-4.85-2.76-7.62,0-3.6,1.57-6.98,4.34-9.27,2.15-1.78,4.87-2.77,7.65-2.77,3.59,0,6.95,1.58,9.24,4.33t0,0l.11.14c.33.39.67.8,1.02,1.21,2.1,2.42,3.13,5.52,2.89,8.71-.23,3.2-1.7,6.12-4.12,8.21ZM128.51,348.52c-3.24-2.24-5.17-5.93-5.18-9.87,0-2.44.73-4.8,2.13-6.83,2.24-3.24,5.94-5.17,9.88-5.17,2.44,0,4.8.73,6.82,2.13.57.39,1.05.72,1.51,1.03,2.66,1.78,4.47,4.5,5.09,7.64.62,3.15-.02,6.34-1.81,9.01-2.23,3.33-5.96,5.31-9.98,5.31-2.38,0-4.68-.7-6.67-2.03-.58-.39-1.17-.79-1.79-1.22ZM214.85,424.57c0,1.88-1.52,3.4-3.4,3.4h-72.62c-1.88,0-3.4-1.52-3.4-3.4v-9.08c0-11.89,9.67-21.56,21.56-21.56h36.31c11.89,0,21.56,9.67,21.56,21.56v9.08ZM251.63,422.74c-1.63,4.94-6.21,8.26-11.4,8.26-1.27,0-2.53-.2-3.75-.6-1.48-.49-2.37-.83-2.61-.93h-.01c-2.97-1.2-5.3-3.47-6.56-6.42-1.26-2.94-1.29-6.2-.1-9.18,1.83-4.58,6.21-7.54,11.14-7.54,1.52,0,3.01.29,4.44.85.02,0,.06.03.11.05h.05c.12.06.49.19,1.03.37,3.04,1,5.52,3.12,6.96,5.98,1.45,2.86,1.7,6.12.7,9.16ZM209.11,271.06c-11.91,0-21.97,7.14-21.97,15.59v34.1c0,6.63-5.37,12-12,12s-12-5.37-12-12v-34.1c0-21.83,20.62-39.59,45.97-39.59h91.23c11.91,0,21.97-7.14,21.97-15.59v-14.28l-14.79,14.79c-4.69,4.69-12.29,4.69-16.97,0-4.69-4.69-4.69-12.28,0-16.97l35.27-35.27c4.69-4.69,12.29-4.69,16.97,0l35.27,35.27c4.69,4.69,4.69,12.28,0,16.97-2.34,2.34-5.41,3.51-8.49,3.51s-6.14-1.17-8.49-3.51l-14.79-14.79v14.28c0,21.83-20.62,39.59-45.97,39.59h-91.23ZM271.78,435.6h-.02c-.73,0-1.47,0-2.19-.02-3.17-.06-6.15-1.34-8.37-3.61-2.22-2.27-3.44-5.26-3.42-8.44v-.15c.05-3.17,1.33-6.14,3.59-8.36,2.31-2.26,5.38-3.47,8.61-3.44.63,0,1.21.02,1.77.02h.03c6.61,0,12,5.38,12,12s-5.38,12-12,12ZM306.56,430.89c-.62.17-1.29.35-2.12.56-.98.25-1.98.38-2.98.38h0c-5.48,0-10.25-3.71-11.61-9.02-.26-.99-.38-2-.38-3,0-5.48,3.71-10.25,9.02-11.61.57-.14,1.16-.3,1.75-.46,1.04-.28,2.11-.43,3.17-.43,5.39,0,10.14,3.63,11.57,8.83,1.74,6.39-2.03,13-8.41,14.75ZM338.77,417.55c-.55.31-1.14.64-1.9,1.05-1.76.96-3.74,1.47-5.73,1.47-4.4,0-8.45-2.4-10.55-6.26-.96-1.76-1.46-3.74-1.46-5.72,0-4.41,2.39-8.46,6.26-10.56.54-.3,1.07-.59,1.6-.89,1.79-1.01,3.82-1.55,5.87-1.55,4.34,0,8.35,2.35,10.47,6.12,3.25,5.76,1.2,13.09-4.56,16.34ZM366.78,397.56c-.58.51-1.11.97-1.62,1.41-2.17,1.86-4.94,2.88-7.8,2.88-3.51,0-6.84-1.53-9.12-4.2-1.88-2.19-2.9-4.98-2.89-7.87.02-3.48,1.55-6.78,4.2-9.05.45-.38.93-.8,1.41-1.21,2.19-1.92,4.99-2.98,7.9-2.98,3.46,0,6.75,1.49,9.03,4.09,4.36,4.98,3.86,12.57-1.11,16.93ZM418.62,345.97c3.12,3.12,3.12,8.19,0,11.31-1.56,1.56-3.61,2.34-5.66,2.34s-4.09-.78-5.66-2.34l-13.76-13.76-13.76,13.76c-1.56,1.56-3.61,2.34-5.66,2.34s-4.09-.78-5.66-2.34c-3.12-3.12-3.12-8.19,0-11.31l13.76-13.76-13.76-13.76c-3.12-3.12-3.12-8.19,0-11.31,3.13-3.12,8.19-3.12,11.31,0l13.76,13.76,13.76-13.76c3.13-3.12,8.19-3.12,11.31,0,3.12,3.12,3.12,8.19,0,11.31l-13.76,13.76,13.76,13.76Z"/>
</svg>