<svg xmlns="http://www.w3.org/2000/svg" data-name="Layer 1" width="800.12205" height="541.4453"
     viewBox="0 0 800.12205 541.4453" xmlns:xlink="http://www.w3.org/1999/xlink">
  <path
    d="M931.831,368.72265c-.83984.69-1.68017,1.35-2.54,2H717.15087q-2.37012-.975-4.71973-2a249.80684,249.80684,0,0,1-61.87012-38.52c-12.37011-10.48-23.75-21.3-32-31.44-11.50976-14.15-22.10986-29.57-27.04-47.13995-4.91992-17.57-3.45019-37.71,7.54-52.28a46.79519,46.79519,0,0,1,12.3501-11.31c.79-.5,1.58985-.98,2.40967-1.43,13.18018-7.4,29.81006-9.2,44.65039-5.37,21.25,5.49,38.90967,20.82,51.50977,38.8,12.60009,17.97,20.78027,38.61,28.83984,59.02,8.18018-36.43,32.95019-69.06,66.41016-85.65,33.45019-16.59,75.01025-16.39,107.75,1.58a108.29189,108.29189,0,0,1,27.55029,21.7c.78955.85,1.56006,1.72,2.31982,2.6,15.96973,18.49,25.96,42.17,26.77979,66.59C970.68114,317.33264,956.10106,348.93267,931.831,368.72265Z"
    transform="translate(-199.93898 -179.27735)" fill="#f2f2f2"/>
  <path
    d="M725.63085,370.72265h-3c-.03955-.67-.08985-1.33-.1499-2a224.18,224.18,0,0,0-6.56006-38.74,238.8167,238.8167,0,0,0-38.31006-80.46,228.5998,228.5998,0,0,0-65.5-60.46,1.42,1.42,0,0,1-.69971-1.03,1.49571,1.49571,0,0,1,2.21-1.56,2.25584,2.25584,0,0,1,.19971.13,226.457,226.457,0,0,1,40.12012,31.12,240.89806,240.89806,0,0,1,51.71,74.13,233.59238,233.59238,0,0,1,19.82031,76.87C725.53124,369.39263,725.581,370.06268,725.63085,370.72265Z"
    transform="translate(-199.93898 -179.27735)" fill="#fff"/>
  <path
    d="M942.85106,219.28265a.18442.18442,0,0,1-.06982.02c-2.18994.4-4.39014.82-6.57031,1.27a296.83934,296.83934,0,0,0-52.33008,15.89,308.80792,308.80792,0,0,0-48.5,25,313.78428,313.78428,0,0,0-43.44971,33.08,307.5251,307.5251,0,0,0-36.99023,40.12,297.483,297.483,0,0,0-22.60987,34.06c-.37988.66-.75,1.33-1.12011,2h-3.42969c.35986-.67.73-1.34,1.10986-2a299.923,299.923,0,0,1,27.98-41.33,310.83961,310.83961,0,0,1,38.31006-39.75,317.8396,317.8396,0,0,1,44.37988-32.28,311.85339,311.85339,0,0,1,49.52-24.16,297.10379,297.10379,0,0,1,51.4502-14.52c.48974-.09.96973-.18,1.46-.27C943.86083,216.07263,944.66112,218.89263,942.85106,219.28265Z"
    transform="translate(-199.93898 -179.27735)" fill="#fff"/>

  <path
    d="M983.061,368.72265h-482a17.02412,17.02412,0,0,0-17,17v186a17.02411,17.02411,0,0,0,17,17h482a17.0241,17.0241,0,0,0,17-17v-186A17.02411,17.02411,0,0,0,983.061,368.72265Zm15,203a15.01828,15.01828,0,0,1-15,15h-482a15.01828,15.01828,0,0,1-15-15v-186a15.01828,15.01828,0,0,1,15-15h482a15.01828,15.01828,0,0,1,15,15Z"
    transform="translate(-199.93898 -179.27735)" fill="#3f3d56"/>
  <path
    d="M588.5747,536.72265a58,58,0,1,1,58-58A58.06566,58.06566,0,0,1,588.5747,536.72265Zm0-114a56,56,0,1,0,56,56A56.06353,56.06353,0,0,0,588.5747,422.72265Z"
    transform="translate(-199.93898 -179.27735)" fill="#3f3d56"/>
  <path id="themeColor"
    d="M940.04724,441.72265h-231a12.4967,12.4967,0,0,0-12.48,12.01,4.01078,4.01078,0,0,0-.02.49,12.51762,12.51762,0,0,0,12.5,12.5h231a12.5,12.5,0,0,0,0-25Z"
    transform="translate(-199.93898 -179.27735)" fill="#6c63ff"/>
  <path id="themeColor"
    d="M940.04724,490.72265h-231a12.4967,12.4967,0,0,0-12.48,12.01,4.01078,4.01078,0,0,0-.02.49,12.51762,12.51762,0,0,0,12.5,12.5h231a12.5,12.5,0,0,0,0-25Z"
    transform="translate(-199.93898 -179.27735)" fill="#6c63ff"/>
  <path id="themeColor"
    d="M582.10406,504.06438a7.45991,7.45991,0,0,1-4.48864-1.491l-.08027-.06027-16.904-12.94229a7.51006,7.51006,0,1,1,9.13524-11.92273l10.94913,8.39563,25.87453-33.74415a7.50978,7.50978,0,0,1,10.52941-1.38993l-.16087.21843.165-.21525a7.51849,7.51849,0,0,1,1.38994,10.52948L588.07894,501.1335A7.5131,7.5131,0,0,1,582.10406,504.06438Z"
    transform="translate(-199.93898 -179.27735)" fill="#6c63ff"/>
  <path
    d="M883.19672,323.67208a198.22844,198.22844,0,0,0-62.84517,1.41695,202.3421,202.3421,0,0,0-59.17277,20.68847,195.19962,195.19962,0,0,0-29.529,19.50926c-1.50813,1.2048.62683,3.31522,2.12132,2.12132a193.80848,193.80848,0,0,1,53.78714-30.23554,199.64709,199.64709,0,0,1,60.06423-12.18517,191.075,191.075,0,0,1,34.77677,1.57754,1.55392,1.55392,0,0,0,1.84518-1.04765,1.50922,1.50922,0,0,0-1.04766-1.84518Z"
    transform="translate(-199.93898 -179.27735)" fill="#fff"/>

  <path
    d="M938.36645,683.35934c7.18382,12.69813,1.0921,55.58546,1.0921,55.58546s-39.89068-16.88557-47.07316-29.57842a26.41318,26.41318,0,0,1,45.98106-26.007Z"
    transform="translate(-190.46477 -158)" fill="#f1f1f1"/>
  <path
    d="M940.037,738.8895l-.84744.17853c-8.16221-38.77834-36.66552-65.075-36.95246-65.33607l.58274-.64064C903.1088,673.35408,931.81545,699.82958,940.037,738.8895Z"
    transform="translate(-190.46477 -158)" fill="#fff"/>
  <path
    d="M1003.63788,697.81816c-9.74789,17.68309-64.70648,41.63828-64.70648,41.63828s-9.06086-59.2631.68177-76.94077a36.55622,36.55622,0,1,1,64.02471,35.30249Z"
    transform="translate(-190.46477 -158)" fill="#f1f1f1"/>
  <path
    d="M939.41646,740.09789l-.82555-.869c39.76932-37.7685,50.06448-90.44509,50.16385-90.97274l1.17793.2216C989.83286,649.009,979.47454,702.05508,939.41646,740.09789Z"
    transform="translate(-190.46477 -158)" fill="#fff"/>
  <path
    d="M383.03037,563.91909a75.18955,75.18955,0,0,1-18.63955-2.41115l-1.19992-.332-1.11309-.55768c-40.242-20.17656-74.192-46.827-100.90712-79.21137a299.86458,299.86458,0,0,1-50.94916-90.47014,348.20978,348.20978,0,0,1-19.69086-122.66453c.017-.87611.03139-1.55256.03139-2.01861,0-20.28912,11.262-38.0913,28.69121-45.35357,13.33947-5.55813,134.45539-55.30526,143.20632-58.89963,16.48038-8.25772,34.062-1.36535,36.87554-.16006,6.31094,2.58025,118.2752,48.375,142.47062,59.89621,24.93578,11.87415,31.5889,33.20566,31.5889,43.93787,0,48.58822-8.415,93.99778-25.01129,134.9674a312.51684,312.51684,0,0,1-56.16213,90.51087c-45.84677,51.59381-91.7057,69.8841-92.14828,70.0453A50.11,50.11,0,0,1,383.03037,563.91909Zm-10.78453-26.71374c3.97586.89138,13.12949,2.22845,19.0957.052,7.57929-2.76408,45.96243-22.668,81.83036-63.03189,49.55709-55.769,74.70242-125.87542,74.73919-208.37177-.08852-1.67134-1.27542-13.59188-17.06153-21.10867C507.12331,233.44669,390.746,185.86014,389.5732,185.38052l-.32154-.13631c-2.43886-1.022-10.20055-3.1747-15.55082-.371l-1.07124.49943c-1.2972.53279-129.86317,53.33754-143.57481,59.05064-9.59168,3.99651-13.00917,13.89729-13.00917,21.83037,0,.57973-.015,1.423-.03619,2.51294C214.91358,325.21375,227.97577,464.11262,372.24584,537.20535Z"
    transform="translate(-190.46477 -158)" fill="#3f3d56"/>
  <path id="themeColor"
    d="M367.78865,173.58611S238.05415,226.86992,224.154,232.66164s-20.85019,19.69184-20.85019,33.592S192.87875,461.53177,367.78865,549.22768c0,0,15.87478,4.39241,27.91882,0s164.9454-78.52642,164.9454-283.55325c0,0,0-20.85018-24.32522-32.43362s-141.93358-59.6547-141.93358-59.6547S379.95125,167.21522,367.78865,173.58611Z"
    transform="translate(-190.46477 -158)" fill="#6c63ff"/>
  <path d="M381.68877,215.28648V499.53673S250.79593,436.53013,251.95428,270.887Z" transform="translate(-200.46477 -158)"
        opacity="0.1"/>
  <path d="M1008.53523,742h-381a1,1,0,0,1,0-2h381a1,1,0,0,1,0,2Z" transform="translate(-190.46477 -158)"
        fill="#cacaca"/>

  <path
    d="M1412.67266,1130.64064V1104.50622a37.84246,37.84246,0,1,0-75.6849,0v26.13442a19.67618,19.67618,0,0,0-18.7911,19.6465v61.75852h113.2671V1150.28714A19.67618,19.67618,0,0,0,1412.67266,1130.64064ZM1364.8302,1079.98768a24.54552,24.54552,0,0,1,24.51692,24.51854v26.08888H1340.3133V1104.50622A24.5455,24.5455,0,0,1,1364.8302,1079.98768Z"
    transform="translate(-1171.47638 -942.94372)" fill="#fff"/>
  <path id="themeColor"
    d="M1375.01142,1161.13896a10.18122,10.18122,0,1,0-15.90866,8.414v22.13H1370.556v-22.13A10.16842,10.16842,0,0,0,1375.01142,1161.13896Z"
    transform="translate(-1161.47638 -942.94372)" fill="#6c63ff"/>

</svg>
